<svg width="127" height="197" viewBox="0 0 127 197" fill="none" xmlns="http://www.w3.org/2000/svg">
<g filter="url(#filter0_d_469_13)">
<path d="M89.6186 161.356C90.5948 163.178 92.0916 164.61 93.7836 165.456C101.01 169.069 109.773 163.01 107.749 155.043C103.844 145.932 85.4734 114.158 80.8656 105.584L70.0033 85.4099C52.9042 55.1682 59.1236 67.0305 31.0484 17.4034V12.7829C30.9279 5.79356 25.1 -2.44488 15.8852 1.45931C10.6505 4.65827 9.15585 10.8956 13.9328 16.9479C15.0391 18.705 16.6661 20.0716 21.0263 21.9589L74.13 130.119C81.8093 145.802 88.7726 159.859 89.6186 161.356Z" fill="#010101"/>
<path d="M40.5582 44.2754C25.4601 17.7235 25.4601 17.7235 26.176 15.3156C28.4823 8.06713 23.345 4.01883 19.577 4.70753C14.0454 6.98519 11.8027 12.9549 24.8093 18.3743L34.9615 39.004C40.5582 50.3927 47.1962 63.9289 54.1595 78.5715C55.2435 76.7648 57.2251 74.5738 56.242 72.3891C55.9166 71.478 48.8231 58.8528 40.5582 44.2754Z" fill="white"/>
<path d="M103.554 156.73C103.554 156.014 95.0936 140.591 84.8112 122.434C74.5289 104.277 66.0688 89.3744 65.9386 89.3744C65.8735 89.3744 65.0926 90.7411 62.6847 95.5569L78.2384 127.445C86.8287 144.951 94.3777 159.854 94.9634 160.505C97.8794 163.421 103.554 160.736 103.554 156.73Z" fill="white"/>
</g>
<defs>
<filter id="filter0_d_469_13" x="0.344922" y="0.453125" width="126.4" height="195.772" filterUnits="userSpaceOnUse" color-interpolation-filters="sRGB">
<feFlood flood-opacity="0" result="BackgroundImageFix"/>
<feColorMatrix in="SourceAlpha" type="matrix" values="0 0 0 0 0 0 0 0 0 0 0 0 0 0 0 0 0 0 127 0" result="hardAlpha"/>
<feOffset dx="4" dy="15"/>
<feGaussianBlur stdDeviation="7.35"/>
<feComposite in2="hardAlpha" operator="out"/>
<feColorMatrix type="matrix" values="0 0 0 0 0 0 0 0 0 0 0 0 0 0 0 0 0 0 0.62 0"/>
<feBlend mode="normal" in2="BackgroundImageFix" result="effect1_dropShadow_469_13"/>
<feBlend mode="normal" in="SourceGraphic" in2="effect1_dropShadow_469_13" result="shape"/>
</filter>
</defs>
</svg>
