<svg width="557" height="444" viewBox="0 0 557 444" fill="none" xmlns="http://www.w3.org/2000/svg">
<mask id="path-1-outside-1_13125_80002" maskUnits="userSpaceOnUse" x="14" y="4.52246" width="508" height="422" fill="black">
<rect fill="white" x="14" y="4.52246" width="508" height="422"/>
<path d="M113.3 18.4001C113.8 17.5001 115.1 16.4001 116.3 15.9001C117.5 15.5001 119.8 15.4001 121.5 15.7001C123.2 16.0001 125.7 16.9001 127.2 17.6001C128.8 18.4001 131.1 20.5001 132.5 22.3001C133.8 24.0001 135.6 27.5001 136.5 30.0001C137.8 33.9001 141 37.2001 162.2 56.2001C175.6 68.1001 204.7 95.7001 227 117.5C249.3 139.2 267.7 157 268 157C268.3 157 286.9 139 309.5 117C332.1 94.9001 361.2 67.3001 374.2 55.7001C396 36.3001 398.1 34.1001 399.7 29.5001C400.6 26.8001 403 22.9001 405 20.9001C407.1 18.6001 410.2 16.8001 412.7 16.1001C415.6 15.4001 417.8 15.3001 419.5 16.0001C420.9 16.6001 422.5 18.0001 423.1 19.3001C423.8 20.5001 424 23.2001 423.6 25.5001C423.3 27.7001 421.8 31.1001 420.3 32.9001C418.6 35.1001 414.9 37.6001 410.8 39.4001C404.5 42.3001 403 43.8001 384.9 64.0001C374.4 75.8001 359.6 91.8001 352.1 99.5001C344.6 107.2 325.7 126.5 281.5 171.2L318.5 207.4C338.9 227.2 359.3 247.2 372.5 259.9L382.5 250.7C391 243 394.6 240.5 405 235.2C411.9 231.7 419.6 228.4 422.2 227.9C425.4 227.3 428.7 227.4 432.2 228.1C436.9 229.2 438.4 230.2 445.2 237.1C451.8 243.7 453.8 245.2 458.2 246.4C461.5 247.3 465.3 249.4 468 251.8C470.5 253.9 473.5 257.6 474.7 260.1C475.9 262.5 477.2 267 477.6 270C478.2 274.9 478.8 276.1 483.5 281C486.4 284 489.5 288 490.4 289.7C491.4 291.7 492 295.6 492 299.7C492.1 305.8 492.5 307.3 496.3 314C500.1 320.8 500.5 322.1 500.5 328.5C500.5 334.5 500 336.4 497.2 341.5C495.4 344.8 491.2 350.8 487.7 354.9C484.3 358.9 481 362.9 480.5 363.6C479.7 364.6 483.3 368.8 495.2 380.7C510.6 396.1 511 396.6 511 400.7C511 403.1 510.4 406.2 509.6 407.7C508.9 409.3 507.2 411.2 505.9 412.1C504.6 413 502.4 414 501 414.3C499.6 414.7 496.9 414.5 495 414C492.5 413.3 487.4 408.9 461.5 382.9L459.5 385.1C458.4 386.2 455.8 388.1 453.7 389.1C451.4 390.3 447.9 391 444.5 391C441.3 391 437.4 390.3 435.3 389.2C433.3 388.3 429.8 385.2 427.5 382.5C425.2 379.7 421.5 376.7 419.4 375.6C417.3 374.6 413.9 372.3 408.5 367L403.5 369.6C399.4 371.7 397.5 372.1 393 371.7C389.3 371.4 381.8 368.9 370.5 364.4C355.3 358.3 353 357 348.5 352.5C344 348 342.8 345.8 337.1 331C333.5 321.9 330 312.2 329.2 309.5C328.5 306.7 328.1 302.2 328.3 299.5C328.6 296.7 329.7 292.7 330.8 290.5C331.9 288.3 335 284.4 337.6 281.9C340.3 279.4 344.6 276.2 347.2 274.7C352 272 352 272 350.2 269.7C349.3 268.4 330.4 248.9 268 185.5L251.8 202C242.9 211.1 224 230.2 209.8 244.5C195.6 258.8 184 270.8 184 271.2C184 271.7 186.1 273.2 188.7 274.7C191.4 276.2 195.7 279.4 198.4 281.9C201 284.4 204 288.1 205 290C206 291.9 207.1 295.7 207.5 298.5C208 302 207.7 305.3 206.5 309.5C205.6 312.8 202.6 321.4 199.8 328.5C197 335.6 193.7 343.5 192.5 346C191.2 348.5 188.7 352 186.8 353.7C184.5 356 178.3 359.1 166.2 364C154.9 368.6 147 371.2 143.2 371.6C138.4 372.1 136.7 371.8 127.5 367.1L123.7 370.6C121.7 372.4 118.5 374.6 116.7 375.3C115 376.1 111.4 379.1 108.9 382.1C106.4 385.1 102.7 388.3 100.7 389.2C98.6 390.3 94.7 391 91.5 391C88.1 391 84.6 390.3 82.2 389.1C80.2 388.1 77.6 386.2 74.5 382.9L59.5 397.9C51.2 406.2 43.1 413.4 41.5 414C39.8 414.6 37.1 414.8 35.5 414.4C33.8 414 31.4 413 30.1 412.1C28.8 411.2 27.1 409.3 26.4 407.7C25.6 406.2 25 403.1 25 400.7C25 396.603 25.4992 396.101 40.4635 381.037L40.5 381C49 372.5 56 365.2 56 364.7C56 364.3 53 360.5 49.2 356.2C45.5 351.9 41 345.5 39.1 341.9C36.6 337.3 35.6 333.8 35.2 329.5C34.8 323.9 35.1 322.9 39.4 314.5C43.5 306.6 44 304.7 44 299.2C44 295.8 44.5 291.8 45.1 290.2C45.7 288.7 48.8 284.8 52 281.5C57.2 276.1 57.8 274.9 58.4 270C58.8 267 60.1 262.5 61.3 260.1C62.5 257.6 65.5 253.9 68 251.8C70.7 249.4 74.7 247.2 78 246.3C82.6 244.9 84.7 243.4 90.5 237.4C94.3 233.4 98.7 229.7 100.2 229.1C101.8 228.5 106 228 109.7 228C116.1 228 117.3 228.3 130 234.7C141.8 240.6 144.8 242.7 163.5 259.9L183 241C193.7 230.5 214.1 210.6 254.2 171.5L215.5 132C194.2 110.3 166.7 81.3001 154.4 67.5001C133.1 43.8001 131.6 42.3001 125.2 39.4001C120.5 37.3001 117.6 35.2001 115.5 32.4001C113.4 29.6001 112.5 27.3001 112.5 24.3001C112.4 21.9001 112.8 19.3001 113.3 18.4001Z"/>
</mask>
<path d="M113.3 18.4001C113.8 17.5001 115.1 16.4001 116.3 15.9001C117.5 15.5001 119.8 15.4001 121.5 15.7001C123.2 16.0001 125.7 16.9001 127.2 17.6001C128.8 18.4001 131.1 20.5001 132.5 22.3001C133.8 24.0001 135.6 27.5001 136.5 30.0001C137.8 33.9001 141 37.2001 162.2 56.2001C175.6 68.1001 204.7 95.7001 227 117.5C249.3 139.2 267.7 157 268 157C268.3 157 286.9 139 309.5 117C332.1 94.9001 361.2 67.3001 374.2 55.7001C396 36.3001 398.1 34.1001 399.7 29.5001C400.6 26.8001 403 22.9001 405 20.9001C407.1 18.6001 410.2 16.8001 412.7 16.1001C415.6 15.4001 417.8 15.3001 419.5 16.0001C420.9 16.6001 422.5 18.0001 423.1 19.3001C423.8 20.5001 424 23.2001 423.6 25.5001C423.3 27.7001 421.8 31.1001 420.3 32.9001C418.6 35.1001 414.9 37.6001 410.8 39.4001C404.5 42.3001 403 43.8001 384.9 64.0001C374.4 75.8001 359.6 91.8001 352.1 99.5001C344.6 107.2 325.7 126.5 281.5 171.2L318.5 207.4C338.9 227.2 359.3 247.2 372.5 259.9L382.5 250.7C391 243 394.6 240.5 405 235.2C411.9 231.7 419.6 228.4 422.2 227.9C425.4 227.3 428.7 227.4 432.2 228.1C436.9 229.2 438.4 230.2 445.2 237.1C451.8 243.7 453.8 245.2 458.2 246.4C461.5 247.3 465.3 249.4 468 251.8C470.5 253.9 473.5 257.6 474.7 260.1C475.9 262.5 477.2 267 477.6 270C478.2 274.9 478.8 276.1 483.5 281C486.4 284 489.5 288 490.4 289.7C491.4 291.7 492 295.6 492 299.7C492.1 305.8 492.5 307.3 496.3 314C500.1 320.8 500.5 322.1 500.5 328.5C500.5 334.5 500 336.4 497.2 341.5C495.4 344.8 491.2 350.8 487.7 354.9C484.3 358.9 481 362.9 480.5 363.6C479.7 364.6 483.3 368.8 495.2 380.7C510.6 396.1 511 396.6 511 400.7C511 403.1 510.4 406.2 509.6 407.7C508.9 409.3 507.2 411.2 505.9 412.1C504.6 413 502.4 414 501 414.3C499.6 414.7 496.9 414.5 495 414C492.5 413.3 487.4 408.9 461.5 382.9L459.5 385.1C458.4 386.2 455.8 388.1 453.7 389.1C451.4 390.3 447.9 391 444.5 391C441.3 391 437.4 390.3 435.3 389.2C433.3 388.3 429.8 385.2 427.5 382.5C425.2 379.7 421.5 376.7 419.4 375.6C417.3 374.6 413.9 372.3 408.5 367L403.5 369.6C399.4 371.7 397.5 372.1 393 371.7C389.3 371.4 381.8 368.9 370.5 364.4C355.3 358.3 353 357 348.5 352.5C344 348 342.8 345.8 337.1 331C333.5 321.9 330 312.2 329.2 309.5C328.5 306.7 328.1 302.2 328.3 299.5C328.6 296.7 329.7 292.7 330.8 290.5C331.9 288.3 335 284.4 337.6 281.9C340.3 279.4 344.6 276.2 347.2 274.7C352 272 352 272 350.2 269.7C349.3 268.4 330.4 248.9 268 185.5L251.8 202C242.9 211.1 224 230.2 209.8 244.5C195.6 258.8 184 270.8 184 271.2C184 271.7 186.1 273.2 188.7 274.7C191.4 276.2 195.7 279.4 198.4 281.9C201 284.4 204 288.1 205 290C206 291.9 207.1 295.7 207.5 298.5C208 302 207.7 305.3 206.5 309.5C205.6 312.8 202.6 321.4 199.8 328.5C197 335.6 193.7 343.5 192.5 346C191.2 348.5 188.7 352 186.8 353.7C184.5 356 178.3 359.1 166.2 364C154.9 368.6 147 371.2 143.2 371.6C138.4 372.1 136.7 371.8 127.5 367.1L123.7 370.6C121.7 372.4 118.5 374.6 116.7 375.3C115 376.1 111.4 379.1 108.9 382.1C106.4 385.1 102.7 388.3 100.7 389.2C98.6 390.3 94.7 391 91.5 391C88.1 391 84.6 390.3 82.2 389.1C80.2 388.1 77.6 386.2 74.5 382.9L59.5 397.9C51.2 406.2 43.1 413.4 41.5 414C39.8 414.6 37.1 414.8 35.5 414.4C33.8 414 31.4 413 30.1 412.1C28.8 411.2 27.1 409.3 26.4 407.7C25.6 406.2 25 403.1 25 400.7C25 396.603 25.4992 396.101 40.4635 381.037L40.5 381C49 372.5 56 365.2 56 364.7C56 364.3 53 360.5 49.2 356.2C45.5 351.9 41 345.5 39.1 341.9C36.6 337.3 35.6 333.8 35.2 329.5C34.8 323.9 35.1 322.9 39.4 314.5C43.5 306.6 44 304.7 44 299.2C44 295.8 44.5 291.8 45.1 290.2C45.7 288.7 48.8 284.8 52 281.5C57.2 276.1 57.8 274.9 58.4 270C58.8 267 60.1 262.5 61.3 260.1C62.5 257.6 65.5 253.9 68 251.8C70.7 249.4 74.7 247.2 78 246.3C82.6 244.9 84.7 243.4 90.5 237.4C94.3 233.4 98.7 229.7 100.2 229.1C101.8 228.5 106 228 109.7 228C116.1 228 117.3 228.3 130 234.7C141.8 240.6 144.8 242.7 163.5 259.9L183 241C193.7 230.5 214.1 210.6 254.2 171.5L215.5 132C194.2 110.3 166.7 81.3001 154.4 67.5001C133.1 43.8001 131.6 42.3001 125.2 39.4001C120.5 37.3001 117.6 35.2001 115.5 32.4001C113.4 29.6001 112.5 27.3001 112.5 24.3001C112.4 21.9001 112.8 19.3001 113.3 18.4001Z" fill="black"/>
<path d="M113.3 18.4001C113.8 17.5001 115.1 16.4001 116.3 15.9001C117.5 15.5001 119.8 15.4001 121.5 15.7001C123.2 16.0001 125.7 16.9001 127.2 17.6001C128.8 18.4001 131.1 20.5001 132.5 22.3001C133.8 24.0001 135.6 27.5001 136.5 30.0001C137.8 33.9001 141 37.2001 162.2 56.2001C175.6 68.1001 204.7 95.7001 227 117.5C249.3 139.2 267.7 157 268 157C268.3 157 286.9 139 309.5 117C332.1 94.9001 361.2 67.3001 374.2 55.7001C396 36.3001 398.1 34.1001 399.7 29.5001C400.6 26.8001 403 22.9001 405 20.9001C407.1 18.6001 410.2 16.8001 412.7 16.1001C415.6 15.4001 417.8 15.3001 419.5 16.0001C420.9 16.6001 422.5 18.0001 423.1 19.3001C423.8 20.5001 424 23.2001 423.6 25.5001C423.3 27.7001 421.8 31.1001 420.3 32.9001C418.6 35.1001 414.9 37.6001 410.8 39.4001C404.5 42.3001 403 43.8001 384.9 64.0001C374.4 75.8001 359.6 91.8001 352.1 99.5001C344.6 107.2 325.7 126.5 281.5 171.2L318.5 207.4C338.9 227.2 359.3 247.2 372.5 259.9L382.5 250.7C391 243 394.6 240.5 405 235.2C411.9 231.7 419.6 228.4 422.2 227.9C425.4 227.3 428.7 227.4 432.2 228.1C436.9 229.2 438.4 230.2 445.2 237.1C451.8 243.7 453.8 245.2 458.2 246.4C461.5 247.3 465.3 249.4 468 251.8C470.5 253.9 473.5 257.6 474.7 260.1C475.9 262.5 477.2 267 477.6 270C478.2 274.9 478.8 276.1 483.5 281C486.4 284 489.5 288 490.4 289.7C491.4 291.7 492 295.6 492 299.7C492.1 305.8 492.5 307.3 496.3 314C500.1 320.8 500.5 322.1 500.5 328.5C500.5 334.5 500 336.4 497.2 341.5C495.4 344.8 491.2 350.8 487.7 354.9C484.3 358.9 481 362.9 480.5 363.6C479.7 364.6 483.3 368.8 495.2 380.7C510.6 396.1 511 396.6 511 400.7C511 403.1 510.4 406.2 509.6 407.7C508.9 409.3 507.2 411.2 505.9 412.1C504.6 413 502.4 414 501 414.3C499.6 414.7 496.9 414.5 495 414C492.5 413.3 487.4 408.9 461.5 382.9L459.5 385.1C458.4 386.2 455.8 388.1 453.7 389.1C451.4 390.3 447.9 391 444.5 391C441.3 391 437.4 390.3 435.3 389.2C433.3 388.3 429.8 385.2 427.5 382.5C425.2 379.7 421.5 376.7 419.4 375.6C417.3 374.6 413.9 372.3 408.5 367L403.5 369.6C399.4 371.7 397.5 372.1 393 371.7C389.3 371.4 381.8 368.9 370.5 364.4C355.3 358.3 353 357 348.5 352.5C344 348 342.8 345.8 337.1 331C333.5 321.9 330 312.2 329.2 309.5C328.5 306.7 328.1 302.2 328.3 299.5C328.6 296.7 329.7 292.7 330.8 290.5C331.9 288.3 335 284.4 337.6 281.9C340.3 279.4 344.6 276.2 347.2 274.7C352 272 352 272 350.2 269.7C349.3 268.4 330.4 248.9 268 185.5L251.8 202C242.9 211.1 224 230.2 209.8 244.5C195.6 258.8 184 270.8 184 271.2C184 271.7 186.1 273.2 188.7 274.7C191.4 276.2 195.7 279.4 198.4 281.9C201 284.4 204 288.1 205 290C206 291.9 207.1 295.7 207.5 298.5C208 302 207.7 305.3 206.5 309.5C205.6 312.8 202.6 321.4 199.8 328.5C197 335.6 193.7 343.5 192.5 346C191.2 348.5 188.7 352 186.8 353.7C184.5 356 178.3 359.1 166.2 364C154.9 368.6 147 371.2 143.2 371.6C138.4 372.1 136.7 371.8 127.5 367.1L123.7 370.6C121.7 372.4 118.5 374.6 116.7 375.3C115 376.1 111.4 379.1 108.9 382.1C106.4 385.1 102.7 388.3 100.7 389.2C98.6 390.3 94.7 391 91.5 391C88.1 391 84.6 390.3 82.2 389.1C80.2 388.1 77.6 386.2 74.5 382.9L59.5 397.9C51.2 406.2 43.1 413.4 41.5 414C39.8 414.6 37.1 414.8 35.5 414.4C33.8 414 31.4 413 30.1 412.1C28.8 411.2 27.1 409.3 26.4 407.7C25.6 406.2 25 403.1 25 400.7C25 396.603 25.4992 396.101 40.4635 381.037L40.5 381C49 372.5 56 365.2 56 364.7C56 364.3 53 360.5 49.2 356.2C45.5 351.9 41 345.5 39.1 341.9C36.6 337.3 35.6 333.8 35.2 329.5C34.8 323.9 35.1 322.9 39.4 314.5C43.5 306.6 44 304.7 44 299.2C44 295.8 44.5 291.8 45.1 290.2C45.7 288.7 48.8 284.8 52 281.5C57.2 276.1 57.8 274.9 58.4 270C58.8 267 60.1 262.5 61.3 260.1C62.5 257.6 65.5 253.9 68 251.8C70.7 249.4 74.7 247.2 78 246.3C82.6 244.9 84.7 243.4 90.5 237.4C94.3 233.4 98.7 229.7 100.2 229.1C101.8 228.5 106 228 109.7 228C116.1 228 117.3 228.3 130 234.7C141.8 240.6 144.8 242.7 163.5 259.9L183 241C193.7 230.5 214.1 210.6 254.2 171.5L215.5 132C194.2 110.3 166.7 81.3001 154.4 67.5001C133.1 43.8001 131.6 42.3001 125.2 39.4001C120.5 37.3001 117.6 35.2001 115.5 32.4001C113.4 29.6001 112.5 27.3001 112.5 24.3001C112.4 21.9001 112.8 19.3001 113.3 18.4001Z" stroke="white" stroke-width="22" mask="url(#path-1-outside-1_13125_80002)"/>
<mask id="path-2-outside-2_13125_80002" maskUnits="userSpaceOnUse" x="39.0215" y="231" width="458" height="158" fill="black">
<rect fill="white" x="39.0215" y="231" width="458" height="158"/>
<path fill-rule="evenodd" clip-rule="evenodd" d="M111.5 234.1C113.2 234.1 116.3 234.9 118.5 235.8C120.7 236.8 126 241.1 130.3 245.3C134.5 249.5 138 252.6 138 252C138 251.4 136.8 249.6 135.2 248C133.7 246.3 132.8 244.6 133.2 244.2C133.6 243.8 136.3 245.1 139.1 247C142 248.9 147.4 253.9 151.2 258C156.6 264 157.7 265.8 156.7 266.8C156.1 267.5 155.2 268.1 154.7 268C154.3 268 152.3 265.8 150.2 263C148.2 260.3 146.4 258.3 146.2 258.5C146.1 258.8 146.4 259.9 147 261C147.6 262.1 147.8 263.2 147.5 263.5C147.2 263.8 145.8 263.2 144.2 262.3C142.4 261.2 143.1 262.3 146.5 265.8C149.2 268.6 151.2 271.3 150.8 271.7C150.3 272.2 149 271.6 147.8 270.5C146.5 269.4 150.5 273.7 156.6 280C162.7 286.3 168.6 293.3 169.8 295.5C170.9 297.7 172.1 300.9 172.4 302.5C172.9 304.3 172.6 306.9 171.7 309C170.9 310.9 168.2 314.4 165.6 316.8C163.1 319.1 159.5 321.7 154.5 324.1L157.5 321.2C159.2 319.7 161.4 317.3 162.5 316C164.1 314.1 163.7 314.2 160.5 316.7C158.3 318.4 154.7 320.7 152.5 321.8C150.3 322.9 148.1 323.7 147.5 323.5C146.9 323.2 141.7 317.3 135.8 310.3C129.9 303.3 121.4 293.9 116.9 289.5C111.1 283.8 109.5 282.7 111.5 285.5C113.1 287.7 120.1 296.3 127 304.5C134 312.8 140.9 321.3 142.4 323.5C144.1 326.1 145.1 328.8 145 331.3C145 333.3 144.3 336.4 143.5 338C142.7 339.6 140.3 342.8 138.2 345.1C136.2 347.3 132.9 349.6 131 350.1C129.1 350.7 127.4 350.9 127.2 350.6C127.1 350.3 128.8 349.1 131 348C133.2 346.9 136.1 344.5 137.4 342.8C138.8 341 140.3 338.1 142 333.5L139.8 336.5C138.6 338.1 135.5 341.6 132.8 344.3C130.2 346.9 127.2 349 126.2 349C125.3 349 118.8 343.3 111.9 336.3C105 329.2 97.4997 321.4 95.1997 318.8C92.8997 316.1 90.6997 314 90.1997 314C89.7997 313.9 87.6997 312.2 81.6997 306.5L83.7997 310C84.9997 311.9 94.2997 322.2 104.5 332.8C121.5 350.5 122.9 352.2 122.3 354.8C121.9 356.3 119.8 359.4 117.5 361.7C115.3 364 113.9 366 114.4 366C114.8 366 116.9 364.3 119 362.3C121 360.2 122.9 357.8 123.2 357C123.5 356.2 124.1 355.8 124.6 356.3C125.1 356.7 124.7 358.6 123.7 360.5C122.8 362.4 120.3 365.1 118.2 366.5C116 368 112.5 369.3 104.5 370.2L85.1997 350.3C73.4997 338.3 66.5997 331.9 67.6997 334C68.6997 335.9 76.7997 345 85.6997 354.2C94.6997 363.5 102 371.4 102 372C102 372.6 100.5 374.6 98.6997 376.7C96.3997 379.3 96.0997 379.9 97.6997 378.9C98.9997 378.1 100.5 376.5 101.2 375.2C102.066 373.733 102.833 373.333 103.5 374C104.166 374.667 103.8 375.9 102.4 377.7C101.2 379.3 98.2997 381.6 91.4997 385.2L85.9997 382.7C82.0997 380.9 77.9997 377.5 71.9997 371.3C67.2997 366.5 59.8997 358.4 55.5997 353.5C50.7997 348.1 46.4997 341.9 44.6997 338C42.2997 332.8 41.7997 330.5 42.0997 326.4C42.3997 322.5 43.2997 320.3 45.5997 317.4C47.7997 314.7 49.5997 313.5 51.3997 313.5C52.7997 313.5 53.9997 313.5 53.9997 313.5C53.9997 313.5 52.8997 310.8 51.4997 307.5C50.1997 304.2 48.9997 300.1 48.9997 298.5C48.9997 296.9 49.9997 293.9 51.2997 292C52.4997 290.1 55.9997 286.8 58.9997 284.8C64.2997 281.2 64.5997 281.1 66.3997 282.8C67.8997 284.1 68.1997 284.2 67.7997 283C67.4997 282.2 66.6997 279.5 65.9997 277C65.3997 274.5 65.0997 270.9 65.3997 269C65.7997 267.1 67.3997 263.4 68.9997 260.8C71.2997 257.1 73.2997 255.4 77.6997 253.3C82.5997 251 84.0997 250.8 87.1997 251.6C90.7997 252.5 90.8997 252.4 90.9997 249.8C90.9997 248.2 91.6997 245.6 92.4997 244C93.2997 242.4 95.6997 240 97.6997 238.8C99.7997 237.6 103.1 236 105 235.3C106.9 234.6 109.8 234.1 111.5 234.1V234.1ZM425 234C426.9 234 430.7 235.1 433.5 236.5C436.2 237.8 439.2 239.5 440 240.2C440.9 240.9 442.4 242.6 443.3 244C444.2 245.4 445 248 445 249.8C445 252.7 445.2 252.9 447 252C448.1 251.4 450 251 451.2 251C452.5 251 456 252.2 459 253.7C462.9 255.7 465.2 257.7 467.2 261C468.7 263.5 470.2 266.9 470.5 268.5C470.8 270.1 470.6 273.5 470.1 276C469.6 278.5 468.8 281.4 468.4 282.5C467.7 284.4 467.7 284.4 469.6 282.8C471.4 281.1 471.7 281.2 477 284.8C480 286.8 483.5 290.1 484.7 292C486 293.9 487 296.9 487 298.5C487 300.1 485.8 304.2 484.5 307.5C483.1 310.8 482 313.6 482 313.8C482 313.9 482.9 313.7 484 313.3C485.3 312.7 486.6 313.1 488.1 314.5C489.3 315.6 491.1 318.2 492.1 320.3C493.1 322.3 494 325.9 494 328.3C494 331 493 334.7 491.1 338.5C489.5 341.8 484.6 348.6 480.3 353.5C476 358.4 468.7 366.5 464 371.3C458.2 377.3 453.8 380.9 445 385L440.3 382.8C437.8 381.5 434.8 379.4 433.8 378C432.8 376.6 431.9 374.9 432 374.3C432 373.6 432.4 373 433 373C433.6 373 434.2 373.8 434.4 374.8C434.7 375.7 436.1 377.4 437.7 378.4C440.4 380.3 440.4 380.3 437.2 376.7C435.5 374.7 434 372.6 434 372C434 371.4 441.3 363.5 450.3 354.2C459.2 345 467.3 335.9 468.3 334C469.4 331.8 462.7 338.1 450.8 350.2C433.1 368.3 431.2 370 428 370C426.1 370 422.5 369 420 367.7C417.5 366.4 414.5 363.8 413.2 361.9C412 360 411 357.9 411 357.3C411 356.6 411.4 356 412 356C412.6 356 413 356.6 413 357.3C412.9 357.9 414.7 360.2 417 362.3C419.2 364.3 421.4 366 422 366C422.6 366 421.2 364.3 418.9 362.3C416.7 360.2 414.5 357 413.9 355.3C413 352 413.1 351.9 431.5 332.8C441.7 322.2 451 311.9 454.3 306.5L450.1 310.5C447.8 312.7 445.7 314.4 445.5 314.3C445.2 314.1 443.1 316.1 440.8 318.8C438.5 321.4 431 329.2 424.1 336.3C417.2 343.3 410.8 349 410 349C409.2 349.1 406.5 347.3 404 345.2C401.5 343.1 398.5 339.7 397.2 337.7C396 335.7 394.8 334.2 394.5 334.5C394.2 334.8 394.8 336.7 395.9 338.8C396.9 340.8 399.3 343.8 401.1 345.4C403 347 405.6 348.7 407 349.1C408.4 349.6 409.3 350.3 409 350.6C408.7 350.9 407.3 350.9 405.7 350.6C404.2 350.3 401.6 348.8 399.8 347.3C398.1 345.7 395.4 342.5 393.8 340C391.9 337 391 334.1 391 331.5C390.9 328.8 391.8 326.2 393.6 323.5C395.1 321.3 402 312.8 408.9 304.5C415.9 296.3 422.9 287.7 424.5 285.5C426.1 283.3 427.1 281.7 426.7 282C426.4 282.3 422.6 285.9 418.5 290C414.3 294.1 406 303.3 400.2 310.3C392.2 319.8 388.9 323.1 387.2 323C386 323 383.8 322.2 382.2 321.3C380.7 320.4 377.7 318.3 375.5 316.6C371.6 313.7 371.6 313.8 376.5 318.9C381.2 323.9 381.3 324.1 378.2 322.6C376.5 321.7 372.9 319.1 370.4 316.8C367.8 314.4 365.1 310.9 364.3 309C363.4 306.9 363.1 304.3 363.6 302.5C363.9 300.9 365.1 297.7 366.2 295.5C367.4 293.3 373.3 286.3 379.4 280C385.5 273.7 389.6 269.3 388.5 270.2C387.4 271.2 385.8 272 385 272C384.2 272 385.9 269.5 389 266.3C392.5 262.7 393.5 261.3 391.7 262.3C390.2 263.2 388.8 263.8 388.5 263.5C388.2 263.2 388.4 262.1 389 261C389.6 259.9 389.9 258.8 389.7 258.5C389.6 258.3 387.8 260.3 385.7 263C383.7 265.8 381.7 268 381.2 268C380.8 268.1 379.9 267.4 379.2 266.5C378.2 265.2 379.3 263.6 386.7 256.1C391.6 251.2 397 246.5 398.7 245.6C400.5 244.7 402.3 244.2 402.7 244.5C403.2 244.7 402.3 246.3 400.7 248C399.2 249.6 398 251.3 398 251.8C398 252.2 401.5 249.2 405.7 245.1C410 241 415.3 236.9 417.5 235.9C419.7 234.9 423.1 234 425 234V234ZM178.9 277C179.2 277 181.5 278.2 184 279.7C186.5 281.1 190.5 283.9 192.9 285.9C195.4 287.9 198.2 291.3 199.2 293.5C200.1 295.7 201 299.2 201 301.3C201 303.4 198.2 312.7 194.4 323.3C190.7 333.3 187.2 342.6 186.5 344C185.8 345.4 183.9 347.7 182.1 349.3C180.3 350.8 177.8 352 176.2 352C174.7 352 172.4 351 171.1 349.7C168.8 347.7 168.7 347.6 169.5 349.5C169.9 350.6 170.4 352.2 170.7 353C171 354.1 169.8 354.9 166.3 355.8C161.5 357.1 161.5 357.1 159.5 354.3C158.4 352.8 156.5 350.5 155.3 349.3C154 348 151.9 347 150.5 347C149.1 347 145.1 348.4 141.5 350C136.3 352.4 135 353.4 135 355.3C135 356.5 135.9 359 137 360.8C138.1 362.5 138.8 364.3 138.5 364.8C138.3 365.2 136.9 364.7 135.5 363.8C134.1 362.8 132.6 361 132.1 359.8C131.7 358.5 131.6 356.7 131.9 355.6C132.2 354.6 134.6 352.2 137.2 350.4C139.9 348.5 143.4 344.9 145.2 342.3C146.9 339.6 149 336 149.7 334.3C150.6 332 152.6 330.1 156.2 328.1C159.1 326.4 163.5 323.4 165.9 321.3C168.4 319.2 171.6 315.5 173.2 313C174.8 310.5 176 307.3 176 305.8C176 304 177.1 301.9 181.8 297H179.4C178.1 297 175.9 296 174.7 294.8C173.4 293.5 171.5 291.2 170.4 289.7C168.6 287 168.6 286.8 170.3 285.2C171.9 283.6 172.2 283.7 177.2 289.5L173.1 282.5L175.7 279.8C177.2 278.2 178.6 277 178.9 277V277ZM357 277C357.3 277 358.7 278.3 363 282.5L358.8 289.5L361.4 286.5C363.8 283.7 364.1 283.6 365.7 285.2C367.4 286.8 367.4 287 365.2 290.4C364 292.4 362.3 294 361.5 294C360.7 294 360 294.7 360 295.5C360 296.5 359 297 354 297L357 300C358.9 301.9 360 304 360 305.8C360 307.3 361.2 310.5 362.8 313C364.4 315.5 367.6 319.2 370.1 321.3C372.5 323.4 376.7 326.4 379.5 328C383.6 330.3 385 331.9 387.7 337.1C389.4 340.6 392.5 345.1 394.7 347C396.8 349 399.4 351.2 400.6 352C401.7 352.8 403.2 354.4 403.7 355.5C404.4 356.7 404.4 358.4 403.9 359.8C403.4 361 401.9 362.8 400.5 363.8C399.1 364.7 397.7 365.2 397.5 364.8C397.2 364.3 397.9 362.5 399 360.8C400.1 359 401 356.5 401 355.3C401 353.4 399.7 352.4 394.5 350C390.9 348.4 386.6 347 385 347C382.6 347 381.3 347.9 378.8 351.3C377.1 353.6 375.4 355.9 375.1 356.3C374.8 356.7 372.3 356.5 369.7 355.8C366.2 354.9 365 354.1 365.3 353C365.6 352.2 366.1 350.6 366.5 349.5C367.3 347.6 367.2 347.7 364.9 349.7C363.6 351 361.2 352 359.5 352C357.7 352 355.4 351 353.7 349.5C352.2 348.1 350.4 345.8 349.6 344.3C348.8 342.7 345.4 333.9 342.1 324.5C338.7 315.1 335.6 305.7 335.3 303.5C334.9 300.9 335.2 297.9 336.3 295C337.2 292.5 339.4 289.1 341.2 287.3C343 285.6 347.2 282.6 350.5 280.6C353.8 278.6 356.7 277 357 277V277ZM149.5 349.1C150.1 349 152.5 351 155 353.5C157.5 355.9 159.3 358.2 159 358.4C158.7 358.6 155.6 360.2 152 361.9C148.4 363.6 144.7 365 143.7 365C142.8 365 141.1 363.8 140 362.3C138.8 360.7 137.7 358.6 137.4 357.5C137 356.3 137.6 354.8 138.7 353.8C139.7 352.8 142.3 351.4 144.5 350.6C146.7 349.8 148.9 349.1 149.5 349.1V349.1ZM386 349C386.3 349 388.5 349.7 391 350.5C393.5 351.4 396.3 352.9 397.3 353.8C398.4 354.9 398.8 356.2 398.4 357.5C398 358.6 396.9 360.7 395.9 362.3C394.8 363.8 393.2 365 392.2 365C391.3 365 387.6 363.6 384 361.9C380.4 360.2 377.3 358.6 377 358.4C376.7 358.2 378.5 355.9 381 353.5C383.4 351 385.7 349 386 349V349Z"/>
</mask>
<path fill-rule="evenodd" clip-rule="evenodd" d="M111.5 234.1C113.2 234.1 116.3 234.9 118.5 235.8C120.7 236.8 126 241.1 130.3 245.3C134.5 249.5 138 252.6 138 252C138 251.4 136.8 249.6 135.2 248C133.7 246.3 132.8 244.6 133.2 244.2C133.6 243.8 136.3 245.1 139.1 247C142 248.9 147.4 253.9 151.2 258C156.6 264 157.7 265.8 156.7 266.8C156.1 267.5 155.2 268.1 154.7 268C154.3 268 152.3 265.8 150.2 263C148.2 260.3 146.4 258.3 146.2 258.5C146.1 258.8 146.4 259.9 147 261C147.6 262.1 147.8 263.2 147.5 263.5C147.2 263.8 145.8 263.2 144.2 262.3C142.4 261.2 143.1 262.3 146.5 265.8C149.2 268.6 151.2 271.3 150.8 271.7C150.3 272.2 149 271.6 147.8 270.5C146.5 269.4 150.5 273.7 156.6 280C162.7 286.3 168.6 293.3 169.8 295.5C170.9 297.7 172.1 300.9 172.4 302.5C172.9 304.3 172.6 306.9 171.7 309C170.9 310.9 168.2 314.4 165.6 316.8C163.1 319.1 159.5 321.7 154.5 324.1L157.5 321.2C159.2 319.7 161.4 317.3 162.5 316C164.1 314.1 163.7 314.2 160.5 316.7C158.3 318.4 154.7 320.7 152.5 321.8C150.3 322.9 148.1 323.7 147.5 323.5C146.9 323.2 141.7 317.3 135.8 310.3C129.9 303.3 121.4 293.9 116.9 289.5C111.1 283.8 109.5 282.7 111.5 285.5C113.1 287.7 120.1 296.3 127 304.5C134 312.8 140.9 321.3 142.4 323.5C144.1 326.1 145.1 328.8 145 331.3C145 333.3 144.3 336.4 143.5 338C142.7 339.6 140.3 342.8 138.2 345.1C136.2 347.3 132.9 349.6 131 350.1C129.1 350.7 127.4 350.9 127.2 350.6C127.1 350.3 128.8 349.1 131 348C133.2 346.9 136.1 344.5 137.4 342.8C138.8 341 140.3 338.1 142 333.5L139.8 336.5C138.6 338.1 135.5 341.6 132.8 344.3C130.2 346.9 127.2 349 126.2 349C125.3 349 118.8 343.3 111.9 336.3C105 329.2 97.4997 321.4 95.1997 318.8C92.8997 316.1 90.6997 314 90.1997 314C89.7997 313.9 87.6997 312.2 81.6997 306.5L83.7997 310C84.9997 311.9 94.2997 322.2 104.5 332.8C121.5 350.5 122.9 352.2 122.3 354.8C121.9 356.3 119.8 359.4 117.5 361.7C115.3 364 113.9 366 114.4 366C114.8 366 116.9 364.3 119 362.3C121 360.2 122.9 357.8 123.2 357C123.5 356.2 124.1 355.8 124.6 356.3C125.1 356.7 124.7 358.6 123.7 360.5C122.8 362.4 120.3 365.1 118.2 366.5C116 368 112.5 369.3 104.5 370.2L85.1997 350.3C73.4997 338.3 66.5997 331.9 67.6997 334C68.6997 335.9 76.7997 345 85.6997 354.2C94.6997 363.5 102 371.4 102 372C102 372.6 100.5 374.6 98.6997 376.7C96.3997 379.3 96.0997 379.9 97.6997 378.9C98.9997 378.1 100.5 376.5 101.2 375.2C102.066 373.733 102.833 373.333 103.5 374C104.166 374.667 103.8 375.9 102.4 377.7C101.2 379.3 98.2997 381.6 91.4997 385.2L85.9997 382.7C82.0997 380.9 77.9997 377.5 71.9997 371.3C67.2997 366.5 59.8997 358.4 55.5997 353.5C50.7997 348.1 46.4997 341.9 44.6997 338C42.2997 332.8 41.7997 330.5 42.0997 326.4C42.3997 322.5 43.2997 320.3 45.5997 317.4C47.7997 314.7 49.5997 313.5 51.3997 313.5C52.7997 313.5 53.9997 313.5 53.9997 313.5C53.9997 313.5 52.8997 310.8 51.4997 307.5C50.1997 304.2 48.9997 300.1 48.9997 298.5C48.9997 296.9 49.9997 293.9 51.2997 292C52.4997 290.1 55.9997 286.8 58.9997 284.8C64.2997 281.2 64.5997 281.1 66.3997 282.8C67.8997 284.1 68.1997 284.2 67.7997 283C67.4997 282.2 66.6997 279.5 65.9997 277C65.3997 274.5 65.0997 270.9 65.3997 269C65.7997 267.1 67.3997 263.4 68.9997 260.8C71.2997 257.1 73.2997 255.4 77.6997 253.3C82.5997 251 84.0997 250.8 87.1997 251.6C90.7997 252.5 90.8997 252.4 90.9997 249.8C90.9997 248.2 91.6997 245.6 92.4997 244C93.2997 242.4 95.6997 240 97.6997 238.8C99.7997 237.6 103.1 236 105 235.3C106.9 234.6 109.8 234.1 111.5 234.1V234.1ZM425 234C426.9 234 430.7 235.1 433.5 236.5C436.2 237.8 439.2 239.5 440 240.2C440.9 240.9 442.4 242.6 443.3 244C444.2 245.4 445 248 445 249.8C445 252.7 445.2 252.9 447 252C448.1 251.4 450 251 451.2 251C452.5 251 456 252.2 459 253.7C462.9 255.7 465.2 257.7 467.2 261C468.7 263.5 470.2 266.9 470.5 268.5C470.8 270.1 470.6 273.5 470.1 276C469.6 278.5 468.8 281.4 468.4 282.5C467.7 284.4 467.7 284.4 469.6 282.8C471.4 281.1 471.7 281.2 477 284.8C480 286.8 483.5 290.1 484.7 292C486 293.9 487 296.9 487 298.5C487 300.1 485.8 304.2 484.5 307.5C483.1 310.8 482 313.6 482 313.8C482 313.9 482.9 313.7 484 313.3C485.3 312.7 486.6 313.1 488.1 314.5C489.3 315.6 491.1 318.2 492.1 320.3C493.1 322.3 494 325.9 494 328.3C494 331 493 334.7 491.1 338.5C489.5 341.8 484.6 348.6 480.3 353.5C476 358.4 468.7 366.5 464 371.3C458.2 377.3 453.8 380.9 445 385L440.3 382.8C437.8 381.5 434.8 379.4 433.8 378C432.8 376.6 431.9 374.9 432 374.3C432 373.6 432.4 373 433 373C433.6 373 434.2 373.8 434.4 374.8C434.7 375.7 436.1 377.4 437.7 378.4C440.4 380.3 440.4 380.3 437.2 376.7C435.5 374.7 434 372.6 434 372C434 371.4 441.3 363.5 450.3 354.2C459.2 345 467.3 335.9 468.3 334C469.4 331.8 462.7 338.1 450.8 350.2C433.1 368.3 431.2 370 428 370C426.1 370 422.5 369 420 367.7C417.5 366.4 414.5 363.8 413.2 361.9C412 360 411 357.9 411 357.3C411 356.6 411.4 356 412 356C412.6 356 413 356.6 413 357.3C412.9 357.9 414.7 360.2 417 362.3C419.2 364.3 421.4 366 422 366C422.6 366 421.2 364.3 418.9 362.3C416.7 360.2 414.5 357 413.9 355.3C413 352 413.1 351.9 431.5 332.8C441.7 322.2 451 311.9 454.3 306.5L450.1 310.5C447.8 312.7 445.7 314.4 445.5 314.3C445.2 314.1 443.1 316.1 440.8 318.8C438.5 321.4 431 329.2 424.1 336.3C417.2 343.3 410.8 349 410 349C409.2 349.1 406.5 347.3 404 345.2C401.5 343.1 398.5 339.7 397.2 337.7C396 335.7 394.8 334.2 394.5 334.5C394.2 334.8 394.8 336.7 395.9 338.8C396.9 340.8 399.3 343.8 401.1 345.4C403 347 405.6 348.7 407 349.1C408.4 349.6 409.3 350.3 409 350.6C408.7 350.9 407.3 350.9 405.7 350.6C404.2 350.3 401.6 348.8 399.8 347.3C398.1 345.7 395.4 342.5 393.8 340C391.9 337 391 334.1 391 331.5C390.9 328.8 391.8 326.2 393.6 323.5C395.1 321.3 402 312.8 408.9 304.5C415.9 296.3 422.9 287.7 424.5 285.5C426.1 283.3 427.1 281.7 426.7 282C426.4 282.3 422.6 285.9 418.5 290C414.3 294.1 406 303.3 400.2 310.3C392.2 319.8 388.9 323.1 387.2 323C386 323 383.8 322.2 382.2 321.3C380.7 320.4 377.7 318.3 375.5 316.6C371.6 313.7 371.6 313.8 376.5 318.9C381.2 323.9 381.3 324.1 378.2 322.6C376.5 321.7 372.9 319.1 370.4 316.8C367.8 314.4 365.1 310.9 364.3 309C363.4 306.9 363.1 304.3 363.6 302.5C363.9 300.9 365.1 297.7 366.2 295.5C367.4 293.3 373.3 286.3 379.4 280C385.5 273.7 389.6 269.3 388.5 270.2C387.4 271.2 385.8 272 385 272C384.2 272 385.9 269.5 389 266.3C392.5 262.7 393.5 261.3 391.7 262.3C390.2 263.2 388.8 263.8 388.5 263.5C388.2 263.2 388.4 262.1 389 261C389.6 259.9 389.9 258.8 389.7 258.5C389.6 258.3 387.8 260.3 385.7 263C383.7 265.8 381.7 268 381.2 268C380.8 268.1 379.9 267.4 379.2 266.5C378.2 265.2 379.3 263.6 386.7 256.1C391.6 251.2 397 246.5 398.7 245.6C400.5 244.7 402.3 244.2 402.7 244.5C403.2 244.7 402.3 246.3 400.7 248C399.2 249.6 398 251.3 398 251.8C398 252.2 401.5 249.2 405.7 245.1C410 241 415.3 236.9 417.5 235.9C419.7 234.9 423.1 234 425 234V234ZM178.9 277C179.2 277 181.5 278.2 184 279.7C186.5 281.1 190.5 283.9 192.9 285.9C195.4 287.9 198.2 291.3 199.2 293.5C200.1 295.7 201 299.2 201 301.3C201 303.4 198.2 312.7 194.4 323.3C190.7 333.3 187.2 342.6 186.5 344C185.8 345.4 183.9 347.7 182.1 349.3C180.3 350.8 177.8 352 176.2 352C174.7 352 172.4 351 171.1 349.7C168.8 347.7 168.7 347.6 169.5 349.5C169.9 350.6 170.4 352.2 170.7 353C171 354.1 169.8 354.9 166.3 355.8C161.5 357.1 161.5 357.1 159.5 354.3C158.4 352.8 156.5 350.5 155.3 349.3C154 348 151.9 347 150.5 347C149.1 347 145.1 348.4 141.5 350C136.3 352.4 135 353.4 135 355.3C135 356.5 135.9 359 137 360.8C138.1 362.5 138.8 364.3 138.5 364.8C138.3 365.2 136.9 364.7 135.5 363.8C134.1 362.8 132.6 361 132.1 359.8C131.7 358.5 131.6 356.7 131.9 355.6C132.2 354.6 134.6 352.2 137.2 350.4C139.9 348.5 143.4 344.9 145.2 342.3C146.9 339.6 149 336 149.7 334.3C150.6 332 152.6 330.1 156.2 328.1C159.1 326.4 163.5 323.4 165.9 321.3C168.4 319.2 171.6 315.5 173.2 313C174.8 310.5 176 307.3 176 305.8C176 304 177.1 301.9 181.8 297H179.4C178.1 297 175.9 296 174.7 294.8C173.4 293.5 171.5 291.2 170.4 289.7C168.6 287 168.6 286.8 170.3 285.2C171.9 283.6 172.2 283.7 177.2 289.5L173.1 282.5L175.7 279.8C177.2 278.2 178.6 277 178.9 277V277ZM357 277C357.3 277 358.7 278.3 363 282.5L358.8 289.5L361.4 286.5C363.8 283.7 364.1 283.6 365.7 285.2C367.4 286.8 367.4 287 365.2 290.4C364 292.4 362.3 294 361.5 294C360.7 294 360 294.7 360 295.5C360 296.5 359 297 354 297L357 300C358.9 301.9 360 304 360 305.8C360 307.3 361.2 310.5 362.8 313C364.4 315.5 367.6 319.2 370.1 321.3C372.5 323.4 376.7 326.4 379.5 328C383.6 330.3 385 331.9 387.7 337.1C389.4 340.6 392.5 345.1 394.7 347C396.8 349 399.4 351.2 400.6 352C401.7 352.8 403.2 354.4 403.7 355.5C404.4 356.7 404.4 358.4 403.9 359.8C403.4 361 401.9 362.8 400.5 363.8C399.1 364.7 397.7 365.2 397.5 364.8C397.2 364.3 397.9 362.5 399 360.8C400.1 359 401 356.5 401 355.3C401 353.4 399.7 352.4 394.5 350C390.9 348.4 386.6 347 385 347C382.6 347 381.3 347.9 378.8 351.3C377.1 353.6 375.4 355.9 375.1 356.3C374.8 356.7 372.3 356.5 369.7 355.8C366.2 354.9 365 354.1 365.3 353C365.6 352.2 366.1 350.6 366.5 349.5C367.3 347.6 367.2 347.7 364.9 349.7C363.6 351 361.2 352 359.5 352C357.7 352 355.4 351 353.7 349.5C352.2 348.1 350.4 345.8 349.6 344.3C348.8 342.7 345.4 333.9 342.1 324.5C338.7 315.1 335.6 305.7 335.3 303.5C334.9 300.9 335.2 297.9 336.3 295C337.2 292.5 339.4 289.1 341.2 287.3C343 285.6 347.2 282.6 350.5 280.6C353.8 278.6 356.7 277 357 277V277ZM149.5 349.1C150.1 349 152.5 351 155 353.5C157.5 355.9 159.3 358.2 159 358.4C158.7 358.6 155.6 360.2 152 361.9C148.4 363.6 144.7 365 143.7 365C142.8 365 141.1 363.8 140 362.3C138.8 360.7 137.7 358.6 137.4 357.5C137 356.3 137.6 354.8 138.7 353.8C139.7 352.8 142.3 351.4 144.5 350.6C146.7 349.8 148.9 349.1 149.5 349.1V349.1ZM386 349C386.3 349 388.5 349.7 391 350.5C393.5 351.4 396.3 352.9 397.3 353.8C398.4 354.9 398.8 356.2 398.4 357.5C398 358.6 396.9 360.7 395.9 362.3C394.8 363.8 393.2 365 392.2 365C391.3 365 387.6 363.6 384 361.9C380.4 360.2 377.3 358.6 377 358.4C376.7 358.2 378.5 355.9 381 353.5C383.4 351 385.7 349 386 349V349Z" fill="white"/>
<path fill-rule="evenodd" clip-rule="evenodd" d="M111.5 234.1C113.2 234.1 116.3 234.9 118.5 235.8C120.7 236.8 126 241.1 130.3 245.3C134.5 249.5 138 252.6 138 252C138 251.4 136.8 249.6 135.2 248C133.7 246.3 132.8 244.6 133.2 244.2C133.6 243.8 136.3 245.1 139.1 247C142 248.9 147.4 253.9 151.2 258C156.6 264 157.7 265.8 156.7 266.8C156.1 267.5 155.2 268.1 154.7 268C154.3 268 152.3 265.8 150.2 263C148.2 260.3 146.4 258.3 146.2 258.5C146.1 258.8 146.4 259.9 147 261C147.6 262.1 147.8 263.2 147.5 263.5C147.2 263.8 145.8 263.2 144.2 262.3C142.4 261.2 143.1 262.3 146.5 265.8C149.2 268.6 151.2 271.3 150.8 271.7C150.3 272.2 149 271.6 147.8 270.5C146.5 269.4 150.5 273.7 156.6 280C162.7 286.3 168.6 293.3 169.8 295.5C170.9 297.7 172.1 300.9 172.4 302.5C172.9 304.3 172.6 306.9 171.7 309C170.9 310.9 168.2 314.4 165.6 316.8C163.1 319.1 159.5 321.7 154.5 324.1L157.5 321.2C159.2 319.7 161.4 317.3 162.5 316C164.1 314.1 163.7 314.2 160.5 316.7C158.3 318.4 154.7 320.7 152.5 321.8C150.3 322.9 148.1 323.7 147.5 323.5C146.9 323.2 141.7 317.3 135.8 310.3C129.9 303.3 121.4 293.9 116.9 289.5C111.1 283.8 109.5 282.7 111.5 285.5C113.1 287.7 120.1 296.3 127 304.5C134 312.8 140.9 321.3 142.4 323.5C144.1 326.1 145.1 328.8 145 331.3C145 333.3 144.3 336.4 143.5 338C142.7 339.6 140.3 342.8 138.2 345.1C136.2 347.3 132.9 349.6 131 350.1C129.1 350.7 127.4 350.9 127.2 350.6C127.1 350.3 128.8 349.1 131 348C133.2 346.9 136.1 344.5 137.4 342.8C138.8 341 140.3 338.1 142 333.5L139.8 336.5C138.6 338.1 135.5 341.6 132.8 344.3C130.2 346.9 127.2 349 126.2 349C125.3 349 118.8 343.3 111.9 336.3C105 329.2 97.4997 321.4 95.1997 318.8C92.8997 316.1 90.6997 314 90.1997 314C89.7997 313.9 87.6997 312.2 81.6997 306.5L83.7997 310C84.9997 311.9 94.2997 322.2 104.5 332.8C121.5 350.5 122.9 352.2 122.3 354.8C121.9 356.3 119.8 359.4 117.5 361.7C115.3 364 113.9 366 114.4 366C114.8 366 116.9 364.3 119 362.3C121 360.2 122.9 357.8 123.2 357C123.5 356.2 124.1 355.8 124.6 356.3C125.1 356.7 124.7 358.6 123.7 360.5C122.8 362.4 120.3 365.1 118.2 366.5C116 368 112.5 369.3 104.5 370.2L85.1997 350.3C73.4997 338.3 66.5997 331.9 67.6997 334C68.6997 335.9 76.7997 345 85.6997 354.2C94.6997 363.5 102 371.4 102 372C102 372.6 100.5 374.6 98.6997 376.7C96.3997 379.3 96.0997 379.9 97.6997 378.9C98.9997 378.1 100.5 376.5 101.2 375.2C102.066 373.733 102.833 373.333 103.5 374C104.166 374.667 103.8 375.9 102.4 377.7C101.2 379.3 98.2997 381.6 91.4997 385.2L85.9997 382.7C82.0997 380.9 77.9997 377.5 71.9997 371.3C67.2997 366.5 59.8997 358.4 55.5997 353.5C50.7997 348.1 46.4997 341.9 44.6997 338C42.2997 332.8 41.7997 330.5 42.0997 326.4C42.3997 322.5 43.2997 320.3 45.5997 317.4C47.7997 314.7 49.5997 313.5 51.3997 313.5C52.7997 313.5 53.9997 313.5 53.9997 313.5C53.9997 313.5 52.8997 310.8 51.4997 307.5C50.1997 304.2 48.9997 300.1 48.9997 298.5C48.9997 296.9 49.9997 293.9 51.2997 292C52.4997 290.1 55.9997 286.8 58.9997 284.8C64.2997 281.2 64.5997 281.1 66.3997 282.8C67.8997 284.1 68.1997 284.2 67.7997 283C67.4997 282.2 66.6997 279.5 65.9997 277C65.3997 274.5 65.0997 270.9 65.3997 269C65.7997 267.1 67.3997 263.4 68.9997 260.8C71.2997 257.1 73.2997 255.4 77.6997 253.3C82.5997 251 84.0997 250.8 87.1997 251.6C90.7997 252.5 90.8997 252.4 90.9997 249.8C90.9997 248.2 91.6997 245.6 92.4997 244C93.2997 242.4 95.6997 240 97.6997 238.8C99.7997 237.6 103.1 236 105 235.3C106.9 234.6 109.8 234.1 111.5 234.1V234.1ZM425 234C426.9 234 430.7 235.1 433.5 236.5C436.2 237.8 439.2 239.5 440 240.2C440.9 240.9 442.4 242.6 443.3 244C444.2 245.4 445 248 445 249.8C445 252.7 445.2 252.9 447 252C448.1 251.4 450 251 451.2 251C452.5 251 456 252.2 459 253.7C462.9 255.7 465.2 257.7 467.2 261C468.7 263.5 470.2 266.9 470.5 268.5C470.8 270.1 470.6 273.5 470.1 276C469.6 278.5 468.8 281.4 468.4 282.5C467.7 284.4 467.7 284.4 469.6 282.8C471.4 281.1 471.7 281.2 477 284.8C480 286.8 483.5 290.1 484.7 292C486 293.9 487 296.9 487 298.5C487 300.1 485.8 304.2 484.5 307.5C483.1 310.8 482 313.6 482 313.8C482 313.9 482.9 313.7 484 313.3C485.3 312.7 486.6 313.1 488.1 314.5C489.3 315.6 491.1 318.2 492.1 320.3C493.1 322.3 494 325.9 494 328.3C494 331 493 334.7 491.1 338.5C489.5 341.8 484.6 348.6 480.3 353.5C476 358.4 468.7 366.5 464 371.3C458.2 377.3 453.8 380.9 445 385L440.3 382.8C437.8 381.5 434.8 379.4 433.8 378C432.8 376.6 431.9 374.9 432 374.3C432 373.6 432.4 373 433 373C433.6 373 434.2 373.8 434.4 374.8C434.7 375.7 436.1 377.4 437.7 378.4C440.4 380.3 440.4 380.3 437.2 376.7C435.5 374.7 434 372.6 434 372C434 371.4 441.3 363.5 450.3 354.2C459.2 345 467.3 335.9 468.3 334C469.4 331.8 462.7 338.1 450.8 350.2C433.1 368.3 431.2 370 428 370C426.1 370 422.5 369 420 367.7C417.5 366.4 414.5 363.8 413.2 361.9C412 360 411 357.9 411 357.3C411 356.6 411.4 356 412 356C412.6 356 413 356.6 413 357.3C412.9 357.9 414.7 360.2 417 362.3C419.2 364.3 421.4 366 422 366C422.6 366 421.2 364.3 418.9 362.3C416.7 360.2 414.5 357 413.9 355.3C413 352 413.1 351.9 431.5 332.8C441.7 322.2 451 311.9 454.3 306.5L450.1 310.5C447.8 312.7 445.7 314.4 445.5 314.3C445.2 314.1 443.1 316.1 440.8 318.8C438.5 321.4 431 329.2 424.1 336.3C417.2 343.3 410.8 349 410 349C409.2 349.1 406.5 347.3 404 345.2C401.5 343.1 398.5 339.7 397.2 337.7C396 335.7 394.8 334.2 394.5 334.5C394.2 334.8 394.8 336.7 395.9 338.8C396.9 340.8 399.3 343.8 401.1 345.4C403 347 405.6 348.7 407 349.1C408.4 349.6 409.3 350.3 409 350.6C408.7 350.9 407.3 350.9 405.7 350.6C404.2 350.3 401.6 348.8 399.8 347.3C398.1 345.7 395.4 342.5 393.8 340C391.9 337 391 334.1 391 331.5C390.9 328.8 391.8 326.2 393.6 323.5C395.1 321.3 402 312.8 408.9 304.5C415.9 296.3 422.9 287.7 424.5 285.5C426.1 283.3 427.1 281.7 426.7 282C426.4 282.3 422.6 285.9 418.5 290C414.3 294.1 406 303.3 400.2 310.3C392.2 319.8 388.9 323.1 387.2 323C386 323 383.8 322.2 382.2 321.3C380.7 320.4 377.7 318.3 375.5 316.6C371.6 313.7 371.6 313.8 376.5 318.9C381.2 323.9 381.3 324.1 378.2 322.6C376.5 321.7 372.9 319.1 370.4 316.8C367.8 314.4 365.1 310.9 364.3 309C363.4 306.9 363.1 304.3 363.6 302.5C363.9 300.9 365.1 297.7 366.2 295.5C367.4 293.3 373.3 286.3 379.4 280C385.5 273.7 389.6 269.3 388.5 270.2C387.4 271.2 385.8 272 385 272C384.2 272 385.9 269.5 389 266.3C392.5 262.7 393.5 261.3 391.7 262.3C390.2 263.2 388.8 263.8 388.5 263.5C388.2 263.2 388.4 262.1 389 261C389.6 259.9 389.9 258.8 389.7 258.5C389.6 258.3 387.8 260.3 385.7 263C383.7 265.8 381.7 268 381.2 268C380.8 268.1 379.9 267.4 379.2 266.5C378.2 265.2 379.3 263.6 386.7 256.1C391.6 251.2 397 246.5 398.7 245.6C400.5 244.7 402.3 244.2 402.7 244.5C403.2 244.7 402.3 246.3 400.7 248C399.2 249.6 398 251.3 398 251.8C398 252.2 401.5 249.2 405.7 245.1C410 241 415.3 236.9 417.5 235.9C419.7 234.9 423.1 234 425 234V234ZM178.9 277C179.2 277 181.5 278.2 184 279.7C186.5 281.1 190.5 283.9 192.9 285.9C195.4 287.9 198.2 291.3 199.2 293.5C200.1 295.7 201 299.2 201 301.3C201 303.4 198.2 312.7 194.4 323.3C190.7 333.3 187.2 342.6 186.5 344C185.8 345.4 183.9 347.7 182.1 349.3C180.3 350.8 177.8 352 176.2 352C174.7 352 172.4 351 171.1 349.7C168.8 347.7 168.7 347.6 169.5 349.5C169.9 350.6 170.4 352.2 170.7 353C171 354.1 169.8 354.9 166.3 355.8C161.5 357.1 161.5 357.1 159.5 354.3C158.4 352.8 156.5 350.5 155.3 349.3C154 348 151.9 347 150.5 347C149.1 347 145.1 348.4 141.5 350C136.3 352.4 135 353.4 135 355.3C135 356.5 135.9 359 137 360.8C138.1 362.5 138.8 364.3 138.5 364.8C138.3 365.2 136.9 364.7 135.5 363.8C134.1 362.8 132.6 361 132.1 359.8C131.7 358.5 131.6 356.7 131.9 355.6C132.2 354.6 134.6 352.2 137.2 350.4C139.9 348.5 143.4 344.9 145.2 342.3C146.9 339.6 149 336 149.7 334.3C150.6 332 152.6 330.1 156.2 328.1C159.1 326.4 163.5 323.4 165.9 321.3C168.4 319.2 171.6 315.5 173.2 313C174.8 310.5 176 307.3 176 305.8C176 304 177.1 301.9 181.8 297H179.4C178.1 297 175.9 296 174.7 294.8C173.4 293.5 171.5 291.2 170.4 289.7C168.6 287 168.6 286.8 170.3 285.2C171.9 283.6 172.2 283.7 177.2 289.5L173.1 282.5L175.7 279.8C177.2 278.2 178.6 277 178.9 277V277ZM357 277C357.3 277 358.7 278.3 363 282.5L358.8 289.5L361.4 286.5C363.8 283.7 364.1 283.6 365.7 285.2C367.4 286.8 367.4 287 365.2 290.4C364 292.4 362.3 294 361.5 294C360.7 294 360 294.7 360 295.5C360 296.5 359 297 354 297L357 300C358.9 301.9 360 304 360 305.8C360 307.3 361.2 310.5 362.8 313C364.4 315.5 367.6 319.2 370.1 321.3C372.5 323.4 376.7 326.4 379.5 328C383.6 330.3 385 331.9 387.7 337.1C389.4 340.6 392.5 345.1 394.7 347C396.8 349 399.4 351.2 400.6 352C401.7 352.8 403.2 354.4 403.7 355.5C404.4 356.7 404.4 358.4 403.9 359.8C403.4 361 401.9 362.8 400.5 363.8C399.1 364.7 397.7 365.2 397.5 364.8C397.2 364.3 397.9 362.5 399 360.8C400.1 359 401 356.5 401 355.3C401 353.4 399.7 352.4 394.5 350C390.9 348.4 386.6 347 385 347C382.6 347 381.3 347.9 378.8 351.3C377.1 353.6 375.4 355.9 375.1 356.3C374.8 356.7 372.3 356.5 369.7 355.8C366.2 354.9 365 354.1 365.3 353C365.6 352.2 366.1 350.6 366.5 349.5C367.3 347.6 367.2 347.7 364.9 349.7C363.6 351 361.2 352 359.5 352C357.7 352 355.4 351 353.7 349.5C352.2 348.1 350.4 345.8 349.6 344.3C348.8 342.7 345.4 333.9 342.1 324.5C338.7 315.1 335.6 305.7 335.3 303.5C334.9 300.9 335.2 297.9 336.3 295C337.2 292.5 339.4 289.1 341.2 287.3C343 285.6 347.2 282.6 350.5 280.6C353.8 278.6 356.7 277 357 277V277ZM149.5 349.1C150.1 349 152.5 351 155 353.5C157.5 355.9 159.3 358.2 159 358.4C158.7 358.6 155.6 360.2 152 361.9C148.4 363.6 144.7 365 143.7 365C142.8 365 141.1 363.8 140 362.3C138.8 360.7 137.7 358.6 137.4 357.5C137 356.3 137.6 354.8 138.7 353.8C139.7 352.8 142.3 351.4 144.5 350.6C146.7 349.8 148.9 349.1 149.5 349.1V349.1ZM386 349C386.3 349 388.5 349.7 391 350.5C393.5 351.4 396.3 352.9 397.3 353.8C398.4 354.9 398.8 356.2 398.4 357.5C398 358.6 396.9 360.7 395.9 362.3C394.8 363.8 393.2 365 392.2 365C391.3 365 387.6 363.6 384 361.9C380.4 360.2 377.3 358.6 377 358.4C376.7 358.2 378.5 355.9 381 353.5C383.4 351 385.7 349 386 349V349Z" stroke="black" stroke-width="6" mask="url(#path-2-outside-2_13125_80002)"/>
<path d="M131.5 345.7C133.7 343.8 136.8 340.4 138.4 338.1C139.9 335.9 141.4 334 141.5 334C141.6 334 141.3 335.2 140.8 336.7C140.3 338.3 138.8 341 137.4 342.7C136.1 344.5 133.7 346.7 132 347.5C130.3 348.3 128.7 349 128.2 349C127.8 349 129.3 347.5 131.5 345.7Z" fill="#1D1D1D"/>
<path d="M395.9 338.7C394.8 336.7 394 334.7 394.1 334.2C394.1 333.8 394.8 334.6 395.7 336C396.6 337.4 399.8 340.9 402.7 343.7C405.6 346.6 407.4 349 406.8 349C406.1 349 403.7 347.5 401.6 345.8C399.5 344 396.9 340.8 395.9 338.7Z" fill="#1D1D1D"/>
<path d="M111.5 241.2C105.8 240.8 105.6 240.7 108 239.4C109.4 238.7 111.6 238.1 113 238C114.4 238 116.7 238.8 118.2 239.8C119.7 240.7 121.7 242.6 124.5 246.5L121 244C118.5 242.2 115.8 241.4 111.5 241.2Z" fill="#1D1D1D"/>
<path d="M412.9 244.3C413.3 243.4 415.1 241.6 417 240.3C418.9 239 421.6 238 423 238C424.4 238.1 426.6 238.7 428 239.4C430.4 240.7 430.2 240.8 424.3 241.1C419.9 241.4 417.4 242.1 415.3 243.8C413 245.6 412.5 245.7 412.9 244.3Z" fill="#1D1D1D"/>
<path d="M95.5003 264.2C92.7003 261.8 88.3003 259 85.5003 258C82.8003 257 81.4003 256.1 82.5003 256.1C83.6003 256 86.2003 256.5 88.3003 257C90.3003 257.6 92.9003 259 94.1003 260.2C95.2003 261.5 97.1003 263.8 98.3003 265.5C100.1 268.1 99.7003 267.9 95.5003 264.2Z" fill="#1D1D1D"/>
<path d="M441.2 260.8C441.9 259.8 444.1 258.4 446 257.6C447.9 256.7 450.9 256.1 452.5 256.1C455.1 256.1 454.9 256.3 450.5 258C447.8 259 443.3 261.8 440.5 264.2C436.4 267.8 435.9 268 437.8 265.5C439 263.8 440.5 261.7 441.2 260.8Z" fill="#1D1D1D"/>
<path d="M54.8003 307.2C53.8003 305.7 53.0003 302.7 53.1003 300.5C53.1003 297.4 53.3003 296.9 54.0003 298.5C54.5003 299.6 55.1003 301.6 55.4003 303C55.7003 304.4 57.0003 307.2 58.4003 309.2C60.9003 312.9 60.9003 312.9 58.7003 311.5C57.5003 310.6 55.7003 308.7 54.8003 307.2Z" fill="#1D1D1D"/>
<path d="M480.1 304C480.7 302.1 481.3 299.9 481.6 299.2C481.8 298.6 482.2 298 482.5 298C482.8 298 483 299.6 483 301.5C483 304.2 482.1 305.9 478.9 309.2C476.167 312.067 475.5 312.5 476.9 310.5C478.1 308.9 479.5 305.9 480.1 304Z" fill="#1D1D1D"/>
<path d="M190.3 321.5C191.1 318.7 192.5 315.1 193.5 313.3C194.5 311.5 195.4 310.2 195.5 310.3C195.5 310.5 194.1 314.9 192.3 320.1C190.6 325.3 189.1 328.8 189.1 328C189 327.2 189.6 324.2 190.3 321.5Z" fill="#1D1D1D"/>
<path d="M344 321.5C342.3 317.1 340.7 312.6 340.4 311.5L339.8 309.5L341.3 311.5C342.2 312.6 343.5 315.3 344.3 317.5C345.1 319.7 346 323.3 346.4 325.5C346.8 328.4 346.1 327.2 344 321.5Z" fill="#1D1D1D"/>
<path d="M179.4 343C178 340.5 175.9 337.4 174.7 336.1L172.5 333.7L175 335.3C176.4 336.2 178.5 338.6 179.7 340.7C181 342.8 182 345.2 182 346C182 346.8 180.8 345.5 179.4 343Z" fill="#1D1D1D"/>
<path d="M356.1 341C357.3 339.1 359.2 336.7 360.4 335.8C361.6 334.8 362.7 334 363 334C363.2 334 362.2 335.2 360.8 336.8C359.4 338.3 357.3 341.3 356.2 343.5C355.1 345.7 354.1 346.8 354.1 346C354.1 345.2 355 342.9 356.1 341Z" fill="#1D1D1D"/>
</svg>
